<svg xmlns="http://www.w3.org/2000/svg" xmlns:xlink="http://www.w3.org/1999/xlink" width="197" height="148.601" viewBox="0 0 197 148.601">
  <defs>
    <clipPath id="clip-path">
      <rect id="Rectangle_21" data-name="Rectangle 21" width="197" height="148.601" fill="none"/>
    </clipPath>
  </defs>
  <g id="Groupe_2434" data-name="Groupe 2434" transform="translate(0 -0.004)">
    <g id="Groupe_2433" data-name="Groupe 2433" transform="translate(0 0.004)" clip-path="url(#clip-path)">
      <path id="Tracé_11" data-name="Tracé 11" d="M95.869,148.6a126.684,126.684,0,0,1-14.1-.742C71,146.652,65.76,144.338,65.542,144.24A59.791,59.791,0,0,1,48.314,133.6q-.263-.23-.55-.457a5.624,5.624,0,0,1,1.48,3.19c.034,1.424-1.039,2.412-3.19,2.936a20.472,20.472,0,0,1-8.372-.107,51.576,51.576,0,0,1-9.574-2.875c-6.178-2.476-12.17-6.022-14.909-8.822l-.059-.06a99.348,99.348,0,0,1-12.9.737.237.237,0,0,1,0-.474,100.194,100.194,0,0,0,12.5-.688c-1.619-1.749-3.236-4.038-2.782-5.859a3.03,3.03,0,0,1,2.285-2.041c3.05-.971,9.587.145,15.983,2.51a20.827,20.827,0,0,0,5.407-6.885c1.759-3.242,15.993-36.444,15.935-39.1-.036-1.65-.471-2.828-3.078-5.854-2.678-3.109-4.424-7.8-4.9-13.074q-.433-1.555-.77-3.239c-1.123-5.606.911-13.319,6.045-22.924A170.306,170.306,0,0,1,60.115,10.19c.615-.835,1.189-1.62,1.7-2.312C64.672,3.964,65.692,2.605,66.3,2.5c.092-.015.246-.042,1.529.458a.572.572,0,0,1,.164-.193c1.379-1.05,9.894,2.268,14.848,4.34,8.094,3.385,13.569,6.443,15.835,8.844.463.49.137,2.012-.964,6.748-.6,2.591-1.427,6.139-2.308,10.544A115.3,115.3,0,0,1,90.1,52.892a47.147,47.147,0,0,1-5.079,9.7,27.867,27.867,0,0,1-7.551,7.489,40.259,40.259,0,0,1-15.7,6.288c-2.331.466-4.015.8-5.28,1.848-2.546,2.1-8.588,14.8-17.959,37.753a21.588,21.588,0,0,0-1.859,9.631,28.844,28.844,0,0,1,3.671,2.616c2.657,2.259,3.979,4.266,3.627,5.506a1.233,1.233,0,0,1-1.078.884c-1.226.188-3.233-.788-4.695-3.017l-.027-.042a11.435,11.435,0,0,1-1.84-4.772q-.069-.443-.11-.9a48.291,48.291,0,0,0-7.909-3.753,19.753,19.753,0,0,1-3.224,2.006,37.1,37.1,0,0,1-11.354,3.194c5.455,5.351,23.052,13.718,32.215,11.485,1.7-.415,2.646-1.12,2.8-2.1.294-1.81-2.087-4.22-3.283-5.267l-.157-.119c-.163-.125-.3-.232-.394-.31-.138-.113-.257-.211-.184-.38a.238.238,0,0,1,.264-.139,3.6,3.6,0,0,1,.734.554c.352.267.877.656,1.631,1.195.453.324.879.659,1.268,1a59.321,59.321,0,0,0,17.1,10.562l.012.005c.051.024,5.239,2.369,16.129,3.589a136.509,136.509,0,0,0,21.053.576,215.855,215.855,0,0,0,30.505-3.713c6.47-1.229,11.734-5.822,16.824-10.265l.561-.49c.4-.345.831-.687,1.292-1.017.767-.548,1.3-.944,1.66-1.216a3.675,3.675,0,0,1,.748-.565.239.239,0,0,1,.264.139c.073.17-.047.268-.186.382-.068.055-.192.155-.4.316l-.163.125c-1.221,1.069-3.643,3.522-3.344,5.37.161,1,1.124,1.718,2.862,2.141,9.454,2.3,27.71-6.459,33.036-11.9q.681-.7,1.225-1.355a46.468,46.468,0,0,1-11.861-3.049q-1.445-.607-2.742-1.308a50.846,50.846,0,0,0-9.745,4.425q-.042.465-.112.917a11.653,11.653,0,0,1-1.875,4.862l-.028.043c-1.489,2.271-3.533,3.266-4.781,3.073a1.253,1.253,0,0,1-1.1-.9c-.358-1.262.989-3.305,3.7-5.607A29.416,29.416,0,0,1,163,125.713a22.007,22.007,0,0,0-1.9-9.822c-9.552-23.394-15.712-36.342-18.308-38.485-1.291-1.066-3.008-1.409-5.384-1.885A41.033,41.033,0,0,1,121.4,69.112a28.4,28.4,0,0,1-7.7-7.633,48.053,48.053,0,0,1-5.177-9.882,117.532,117.532,0,0,1-5.409-20.028c-.9-4.49-1.739-8.107-2.353-10.748-1.121-4.826-1.454-6.376-.983-6.874,1.632-1.729,5.757-4.7,16.14-9.015A111.072,111.072,0,0,1,127.719.6c3.4-.944,4.031-.589,4.2-.175l.007.017c.675-.237.786-.218.854-.207.619.1,1.659,1.489,4.576,5.478.516.705,1.1,1.505,1.728,2.357a173.6,173.6,0,0,1,13.5,20.708c5.1,9.541,7.2,17.249,6.243,22.923a26.1,26.1,0,0,1-.089,2.987,24.98,24.98,0,0,1-5.768,14.082c-2.658,3.085-3.1,4.287-3.138,5.97-.025,1.139,2.768,8.555,7.471,19.838,3.747,8.991,7.928,18.534,8.771,20.022a18.005,18.005,0,0,0,7.156,6.447c5.972-2.008,11.805-2.888,14.654-1.981a3.084,3.084,0,0,1,2.326,2.077c.336,1.35-.444,2.952-1.53,4.411a69.211,69.211,0,0,0,8.076.457.237.237,0,1,1,0,.473,69.357,69.357,0,0,1-8.413-.494c-.461.577-.959,1.125-1.439,1.616-2.792,2.854-8.9,6.467-15.2,8.991a52.573,52.573,0,0,1-9.758,2.931,20.869,20.869,0,0,1-8.533.11c-2.19-.533-3.283-1.539-3.248-2.988a5.769,5.769,0,0,1,1.534-3.281q-.309.244-.593.491l-.561.49c-5.138,4.484-10.451,9.12-17.047,10.373a216.273,216.273,0,0,1-30.6,3.722q-3.6.158-7.04.158m67.073-22.3a28.565,28.565,0,0,0-3.381,2.44c-2.969,2.525-3.779,4.3-3.547,5.117a.805.805,0,0,0,.711.559c1.072.164,2.948-.784,4.313-2.865l.028-.043a11.2,11.2,0,0,0,1.8-4.675q.041-.264.072-.533m-126.218-.116q.03.259.07.514a10.986,10.986,0,0,0,1.768,4.584l.028.042c1.338,2.04,3.176,2.97,4.227,2.809a.786.786,0,0,0,.694-.545c.227-.8-.567-2.54-3.478-5.016a28.019,28.019,0,0,0-3.308-2.388M15.048,119.2a9.029,9.029,0,0,0-2.664.328,2.6,2.6,0,0,0-1.97,1.7c-.335,1.347.693,3.353,2.9,5.669a37.13,37.13,0,0,0,11.554-3.2,19.572,19.572,0,0,0,2.91-1.776q-1.227-.445-2.5-.84A36.9,36.9,0,0,0,15.048,119.2m158.767,2.158q1.1.57,2.3,1.078a46.258,46.258,0,0,0,12.023,3.053c1.312-1.7,1.879-3.166,1.615-4.229a2.651,2.651,0,0,0-2.011-1.74c-2.453-.781-7.492-.172-13.151,1.589q-.392.122-.781.249M130.909.483c-1.16,0-4.613.651-14.8,4.887-8.158,3.392-13.683,6.471-15.978,8.9-.074.078-.162.409.073,1.75.191,1.092.56,2.681,1.028,4.693.614,2.644,1.456,6.265,2.356,10.763a117.131,117.131,0,0,0,5.385,19.946,47.585,47.585,0,0,0,5.124,9.785,27.936,27.936,0,0,0,7.565,7.507A40.612,40.612,0,0,0,137.5,75.057c2.352.471,4.21.843,5.593,1.984,2.657,2.194,8.862,15.2,18.445,38.671a22.822,22.822,0,0,1,1.95,9.705,52.229,52.229,0,0,1,9.146-4.163,18.162,18.162,0,0,1-6.966-6.419c-.866-1.528-4.976-10.908-8.8-20.073C154.054,88,149.33,76.4,149.366,74.733c.038-1.768.517-3.093,3.253-6.269a24.505,24.505,0,0,0,5.655-13.814q.023-.265.04-.529a30.459,30.459,0,0,1-5.349,11.746A18.281,18.281,0,0,1,139.5,72.929q-.632.049-1.288.048a27.729,27.729,0,0,1-13.082-3.849c-4.5-2.5-8.392-5.917-10.418-9.128a91.243,91.243,0,0,1-5.057-10.943c-.953-2.373-1.727-4.478-2.239-6.088-.907-2.856-.7-3.279-.625-3.439.14-.288.624-.717,3.152-1.488,1.62-.494,3.885-1.062,6.549-1.643,5.063-1.1,11-2.14,15.135-2.639,3.836-.464,8.843-.787,13.067-.844,4.9-.066,7.642.209,8.147.817a.759.759,0,0,1,.121.852,4.276,4.276,0,0,1-2.2,1.489c1.894.424,3.127,1.057,3.68,1.9a26.341,26.341,0,0,1,4.144,10.807c-.028-5.218-2.176-11.849-6.412-19.775a173.152,173.152,0,0,0-13.468-20.65C138.078,7.5,137.493,6.7,136.977,6c-2.2-3.009-3.793-5.187-4.264-5.288a4.031,4.031,0,0,0-.823.251,3.332,3.332,0,0,1-.848,1.016,21.5,21.5,0,0,1-2.9,2.069,76.881,76.881,0,0,1-10.351,5.181c-5.508,2.3-9.684,4-12.411,5.038-3.826,1.458-3.947,1.325-4.1,1.155a.274.274,0,0,1-.029-.324c.076-.137.253-.46,5.094-2.9,2.746-1.383,6.465-3.179,10.473-5.059,3.927-1.842,7.679-3.551,10.563-4.814,2.067-.9,3.324-1.421,4.1-1.714-.011-.017-.1-.126-.576-.126M28.736,121.779a49.714,49.714,0,0,1,7.438,3.523,22.4,22.4,0,0,1,1.914-9.515c9.4-23.022,15.489-35.787,18.1-37.939,1.357-1.121,3.18-1.485,5.488-1.947a39.838,39.838,0,0,0,15.539-6.22,27.4,27.4,0,0,0,7.421-7.364,46.682,46.682,0,0,0,5.027-9.6,114.9,114.9,0,0,0,5.283-19.567c.883-4.412,1.708-7.964,2.311-10.558.459-1.974.821-3.532,1.008-4.6.23-1.313.144-1.637.072-1.712C96.112,13.924,90.693,10.9,82.66,7.545a100.482,100.482,0,0,0-10.521-3.88c-3.032-.861-3.712-.624-3.853-.523.759.305,1.821.752,3.313,1.406,2.829,1.239,6.51,2.916,10.363,4.723,3.932,1.844,7.581,3.607,10.275,4.963,4.751,2.393,4.925,2.709,5,2.845a.273.273,0,0,1-.029.323c-.151.167-.27.3-4.026-1.132-2.676-1.02-6.772-2.683-12.175-4.942C74.025,8.406,68.366,5.02,67.815,3.462a7.955,7.955,0,0,0-1.443-.491c-.461.1-2.023,2.236-4.18,5.186-.506.692-1.08,1.477-1.7,2.313A169.864,169.864,0,0,0,47.284,30.728c-5.081,9.506-7.1,17.113-6,22.608q.087.433.18.857c-.073-5.775,1.418-11.125,4.134-14.768A4.6,4.6,0,0,1,48,37.992c-1.585-.554-1.972-.973-2.1-1.271a.647.647,0,0,1,.116-.695c1.077-1.3,9.578-2.265,22.129-.622A81.215,81.215,0,0,1,84.35,39c3.439,1.207,5.846,2.515,6.283,3.414.119.245.2.839-.426,3.154-.4,1.479-1.023,3.383-1.793,5.505a68.511,68.511,0,0,1-4.377,10.061c-1.988,3.151-5.809,6.5-10.222,8.956-4.9,2.727-9.9,4.052-14.1,3.729A17.938,17.938,0,0,1,46.5,66.892a26.709,26.709,0,0,1-4.082-7.614,21.425,21.425,0,0,0,4.429,10.156c2.685,3.117,3.155,4.417,3.192,6.153.035,1.631-4.571,12.932-7.321,19.522-3.622,8.684-7.755,18.13-8.671,19.818a25.727,25.727,0,0,1-3.346,4.967,17.557,17.557,0,0,1-1.965,1.885m13.323-65.2A28.313,28.313,0,0,0,46.871,66.6a17.482,17.482,0,0,0,12.88,6.752c4.1.316,9.015-.988,13.833-3.671,4.347-2.42,8.1-5.708,10.052-8.8a67.253,67.253,0,0,0,4.333-9.97c1.84-5.072,2.45-7.853,2.238-8.291-.31-.638-2.289-1.867-6.013-3.174a80.761,80.761,0,0,0-16.111-3.576,84.981,84.981,0,0,0-15.32-.78c-3.871.2-6,.768-6.383,1.235-.081.1-.066.157-.046.2.1.229.585.649,2.5,1.236a24.459,24.459,0,0,1,4.449-.513,87.092,87.092,0,0,1,13.02.75c9.217,1.111,18.6,3.139,20.824,4.21.218.1.673.324.584.665-.078.3-.412.551-3.594.35C79.288,42.925,70.1,41.989,61.89,40.79c-4.485-.655-8.11-1.3-10.774-1.928-.919-.215-1.675-.417-2.3-.6a4.912,4.912,0,0,0-2.84,1.451c-2.763,3.707-4.23,9.239-4.023,15.177q.03.858.1,1.7M146,33.382q-.618,0-1.3.009c-4.209.057-9.2.379-13.016.841-4.118.5-10.042,1.531-15.091,2.632-8.495,1.852-9.3,2.719-9.376,2.875-.217.447.589,3.447,2.877,9.143a90.852,90.852,0,0,0,5.018,10.867c1.985,3.148,5.816,6.5,10.248,8.967,4.912,2.735,9.92,4.064,14.1,3.742a17.824,17.824,0,0,0,13.132-6.884c2.655-3.359,4.571-7.908,5.695-13.52q.038-.189.071-.382a25.658,25.658,0,0,0-4.313-13.438c-.551-.835-1.93-1.453-4.105-1.842a80.41,80.41,0,0,1-11.628,2.727,174.573,174.573,0,0,1-26.3,2.448c-3.091.025-3.416-.3-3.478-.605-.076-.375.43-.638.934-.846,2.82-1.164,13.04-3.138,23.195-4.109a93.919,93.919,0,0,1,13.874-.47,30.636,30.636,0,0,1,3.349.368c1.506-.546,2.432-1.064,2.642-1.516a.3.3,0,0,0-.056-.35c-.272-.328-2.132-.655-6.474-.655M49.83,38.055a112.4,112.4,0,0,0,12.128,2.266c8.2,1.2,17.369,2.132,22.187,2.437a12.935,12.935,0,0,0,2.992-.005c-.731-.458-4.4-1.55-10.99-2.764a132.565,132.565,0,0,0-19.77-2.277,36.352,36.352,0,0,0-6.548.343m59.216,2.812a8.89,8.89,0,0,0,2.966.226,174.062,174.062,0,0,0,26.221-2.441,83.562,83.562,0,0,0,10.685-2.418A56.447,56.447,0,0,0,139.471,36a163.621,163.621,0,0,0-19.945,2.254c-6.945,1.207-10.027,2.21-10.48,2.616M68.545,3.758c1.159,1.342,5.61,4.189,12.643,7.13,9.587,4.009,13.439,5.463,14.928,5.935C94.2,15.691,88.685,12.946,81.787,9.71,76.224,7.1,71.272,4.882,68.545,3.758M131.1,1.266C128.489,2.31,123.1,4.713,117,7.578c-7.073,3.317-12.719,6.128-14.64,7.27,1.491-.468,5.4-1.941,15.255-6.061A76.393,76.393,0,0,0,127.9,3.64a16.547,16.547,0,0,0,3.2-2.374" transform="translate(0 -0.004)" fill="#fff"/>
    </g>
  </g>
</svg>
