<svg xmlns="http://www.w3.org/2000/svg" xmlns:xlink="http://www.w3.org/1999/xlink" width="24.955" height="24.956" viewBox="0 0 24.955 24.956">
  <defs>
    <clipPath id="clip-path">
      <rect id="Rectangle_7" data-name="Rectangle 7" width="24.955" height="24.956" fill="#fff"/>
    </clipPath>
  </defs>
  <g id="Groupe_7" data-name="Groupe 7" clip-path="url(#clip-path)">
    <path id="Tracé_7" data-name="Tracé 7" d="M6.195,18.755a22.5,22.5,0,0,0,8.688,5.584,12.113,12.113,0,0,0,3.676.617,8.044,8.044,0,0,0,4.98-1.615,2.925,2.925,0,0,0,1.125-1.973l.276-2.334a2.3,2.3,0,0,0-1.574-2.455l-5.4-1.747a2.539,2.539,0,0,0-2.7.749l-1.107,1.266A20.686,20.686,0,0,1,8.109,10.8L9.375,9.691a2.542,2.542,0,0,0,.749-2.7L8.376,1.59A2.3,2.3,0,0,0,5.922.016L3.588.293A2.913,2.913,0,0,0,1.614,1.417C-.118,3.7-.464,6.69.616,10.07a22.421,22.421,0,0,0,5.578,8.685ZM2.554,2.133a1.71,1.71,0,0,1,1.166-.661L6.053,1.2a.98.98,0,0,1,.129-.009,1.116,1.116,0,0,1,1.057.766l1.747,5.4a1.356,1.356,0,0,1-.4,1.442L7.254,9.96a1.092,1.092,0,0,0-.194,1.412,22.337,22.337,0,0,0,2.913,3.6,22.326,22.326,0,0,0,3.6,2.913,1.1,1.1,0,0,0,1.412-.194l1.166-1.333a1.356,1.356,0,0,1,1.442-.4l5.4,1.747a1.112,1.112,0,0,1,.76,1.186l-.276,2.334a1.732,1.732,0,0,1-.661,1.166c-2.475,1.882-5.485,1.48-7.573.813a21.264,21.264,0,0,1-8.207-5.294A21.27,21.27,0,0,1,1.745,9.708c-.672-2.09-1.071-5.1.808-7.575Z" transform="translate(0 0)" fill="#fff"/>
  </g>
</svg>
